<?xml version="1.0" encoding="utf-8"?>
<!-- Generator: Adobe Illustrator 23.0.1, SVG Export Plug-In . SVG Version: 6.00 Build 0)  -->
<svg version="1.1" id="Layer_1" xmlns="http://www.w3.org/2000/svg" xmlns:xlink="http://www.w3.org/1999/xlink" x="0px" y="0px"
	 viewBox="0 0 500 500" style="enable-background:new 0 0 500 500;" xml:space="preserve">
<style type="text/css">
	.st0{fill:#814B99;}
	.st1{fill:#682A7A;}
</style>
<g>
	<path class="st0" d="M229.7,162.9l-74.3,28.7V72.9l74.3,25.8L229.7,162.9L229.7,162.9z"/>
	<path class="st1" d="M126.5,174.4l-4.9-1.6V91.1l4.9-1l4.9-2l5.8-1.9v91l-5.9-2L126.5,174.4z M109,168.6l-3.6-1V96.2l3.9-1l3.9-1
		l3.8-1v78.4l-3.8-1L109,168.6z M94.5,165.1l-3-1V99.7l2.9-1l2.9-1l3-1v70l-2.6-1L94.5,165.1z M88.8,93.3v77.3l54.9,21V73.7
		L88.8,93.3z"/>
	<path class="st0" d="M402.6,162.9l-74.3,28.7V72.9l74.3,25.8V162.9z"/>
	<path class="st1" d="M299.3,174.4l-4.9-2V91.1l4.9-1l4.9-2l5.6-1.9v91l-5.6-2L299.3,174.4z M281.7,168.6l-3.9-1V96.2l3.9-1l3.8-1
		l3.9-1v78.4l-3.9-1L281.7,168.6z M267.2,164.8l-2.9-1V99.7l2.9-1l2.9-1l2.9-1v70l-2.9-1L267.2,164.8z M261.6,93v77.6l55,21V73.7
		L261.6,93z"/>
	<path class="st0" d="M229.7,398.4L155.4,427V308.3l74.3,25.9L229.7,398.4L229.7,398.4z"/>
	<path class="st1" d="M126.5,409.8l-4.9-1.9v-81.3l4.9-1l4.8-2l5.8-1.9v91.2l-5.8-1.9L126.5,409.8z M109,404l-3.6-1.3v-71.4l3.9-1
		l3.9-1l3.8-1V407l-3.8-1L109,404z M94.5,400.2l-3-0.9v-64.1l2.9-1l2.9-1l3-1v69.8l-2.6-0.9L94.5,400.2z M88.8,328.5v77.6l54.9,21
		V309.2L88.8,328.5z"/>
	<path class="st0" d="M402.6,398.4L328.3,427V308.3l74.3,25.9V398.4L402.6,398.4z"/>
	<path class="st1" d="M299.3,409.8l-4.9-1.9v-81.3l4.9-1l4.9-2l5.8-1.9v91l-5.8-1.9L299.3,409.8z M281.7,404l-3.9-1v-71.8l3.9-1
		l3.8-1l3.9-1V407l-3.9-1L281.7,404z M267.2,400.2l-2.9-1v-64.1l2.9-1l2.9-1l2.9-1v69.8l-2.9-1L267.2,400.2z M261.6,328.5v77.6
		l55,21V309.2L261.6,328.5z"/>
	<path class="st0" d="M321.5,280.6l-73.4,27.7V190.6l73.4,26V280.6z"/>
	<path class="st1" d="M218.1,292l-4.9-2v-81.3l4.9-1l4.9-2l5.8-1.9v91l-5.8-2L218.1,292z M200.6,286.3l-3.9-1v-71.7l3.9-1l3.9-1
		l3.8-1v78.7l-3.8-1L200.6,286.3z M186.1,281.5l-3-0.9v-64.1l2.9-1l2.9-1l2.9-1v69.8l-2.9-1L186.1,281.5z M180.5,209.7v77.6
		l55.3,21.1V190.5L180.5,209.7z"/>
	<path class="st0" d="M149.6,280.6l-73.4,27.7V190.6l73.4,26V280.6z"/>
	<path class="st1" d="M46.2,292l-4.9-2v-81.3l4.9-1l4.9-2l5.8-1.9v91l-5.8-2L46.2,292z M28.8,286.3l-3.9-1v-71.7l3.9-1l3.9-1
		l3.7-0.5v78.1l-3.8-1L28.8,286.3z M14.2,281.5l-2.9-1v-64.1l2.9-1l3.1-1.1l2.9-1v69.8l-2.9-0.8L14.2,281.5z M8.6,209.7v77.6
		l54.9,21.1V190.5L8.6,209.7z"/>
	<path class="st0" d="M491.4,280.6l-73.3,27.7V190.6l73.3,26V280.6z M155.4,72.9v118.6l74.3-28.7V98.7L155.4,72.9z M328.3,72.9
		v118.6l74.3-28.7V98.7L328.3,72.9z M155.4,308.3V427l74.3-28.6v-64.1L155.4,308.3L155.4,308.3z M328.3,308.3V427l74.3-28.6v-64.1
		L328.3,308.3L328.3,308.3z M248.1,190.6v117.7l73.4-27.7v-64.1L248.1,190.6L248.1,190.6z M76.2,190.6v117.7l73.4-27.7v-64.1
		L76.2,190.6z"/>
	<path class="st0" d="M418.2,190.6v117.7l73.3-27.7v-64.1L418.2,190.6z"/>
	<path class="st1" d="M388.3,292l-4.9-2v-81.3l4.9-1l4.9-2l5.8-1.9v91l-5.9-2L388.3,292z M370.8,286.3l-3.9-1v-71.7l3.9-1l3.8-1
		l3.9-1v78.7l-3.9-1L370.8,286.3z M356.3,281.5l-2.9-1v-64.1l2.9-1l2.9-1l2.9-1v69.8l-2.9-1L356.3,281.5z M350.6,209.7v77.6l55,21.1
		V190.5L350.6,209.7z"/>
</g>
</svg>
