<?xml version="1.0" encoding="utf-8"?>
<!-- Generator: Adobe Illustrator 23.0.1, SVG Export Plug-In . SVG Version: 6.00 Build 0)  -->
<svg version="1.1" id="Layer_1" xmlns="http://www.w3.org/2000/svg" xmlns:xlink="http://www.w3.org/1999/xlink" x="0px" y="0px"
	 viewBox="0 0 1080 1160" style="enable-background:new 0 0 1080 1160;" xml:space="preserve">
<style type="text/css">
	.st0{clip-path:url(#SVGID_2_);fill:#0057FA;}
	.st1{opacity:0.37;clip-path:url(#SVGID_2_);}
	.st2{fill:none;stroke:#FFFFFF;stroke-width:0.75;stroke-linecap:round;stroke-linejoin:round;stroke-miterlimit:10;}
	.st3{clip-path:url(#SVGID_2_);fill:none;}
	.st4{clip-path:url(#SVGID_2_);}
	.st5{fill:#FFFFFF;}
</style>
<g>
	<defs>
		<rect id="SVGID_1_" width="1080" height="1160"/>
	</defs>
	<clipPath id="SVGID_2_">
		<use xlink:href="#SVGID_1_"  style="overflow:visible;"/>
	</clipPath>
	<rect class="st0" width="1080" height="1160"/>
	<g class="st1">
		<polyline class="st2" points="704.8,838.9 915.4,733.2 850.5,1022.9 855.6,1223.5 953.1,1094.1 850.5,1022.9 667.9,1119.5 
			621.6,881.7 554.9,936.2 433,966.4 453.3,840.6 403.9,756.2 317.3,763.7 194,672.1 -23.4,740.1 47.9,651.1 194,672.1 119.7,862.2 
			317.3,763.7 304,665.2 403.9,756.2 318.5,795 453.3,840.6 232.6,842.7 194,672.1 93.4,560.2 -58.9,563.8 -246.8,522 		"/>
		<path class="st2" d="M58.6,762.1"/>
		<polyline class="st2" points="701,711.6 537.2,816.3 453.3,840.6 704.8,838.9 563.5,698.7 554.9,936.2 592.3,918.4 667.9,1119.5 
			554.9,936.2 453.3,840.6 621.6,881.7 704.8,838.9 701,711.6 563.5,698.7 453.3,840.6 403.9,756.2 297.1,724.1 304,665.2 
			194,672.1 93.4,560.2 -171.7,662.8 47.9,651.1 317.3,763.7 		"/>
		<polyline class="st2" points="850.5,1022.9 725.3,1293.5 667.9,1119.5 555,1109.1 433,966.4 318.5,795 317.3,763.7 232.6,842.7 
			229,1025.9 433,966.4 473.4,1062.5 453.3,840.6 592.3,918.4 850.5,1022.9 822.2,962.5 704.8,838.9 537.2,816.3 403.9,756.2 		"/>
		<polyline class="st2" points="555,1109.1 503.2,1237 667.9,1119.5 821.4,1314.1 850.5,1022.9 		"/>
		<polyline class="st2" points="1156.8,611.9 1254.4,805.8 1057.9,736.5 850.5,1022.9 1139.9,1053.3 1057.9,736.5 704.8,838.9 		"/>
		<polyline class="st2" points="1156.8,611.9 1139.9,1053.3 822.2,962.5 1057.9,736.5 1326.8,691.2 1156.8,611.9 1057.9,736.5 
			915.4,733.2 822.2,962.5 592.3,918.4 621.6,881.7 563.5,698.7 592.3,918.4 555,1109.1 554.9,936.2 		"/>
		<line class="st2" x1="453.3" y1="840.6" x2="229" y2="1025.9"/>
		<polyline class="st2" points="297.1,724.1 194,672.1 -34.8,778.7 		"/>
		<polyline class="st2" points="-171.7,662.8 -58.9,563.8 -241,620 93.4,560.2 47.9,651.1 25.9,508.2 -217.8,577 		"/>
		<polyline class="st2" points="-58.9,563.8 25.9,508.2 -23.4,740.1 		"/>
	</g>
	
		<rect x="3091" y="218.1" transform="matrix(0.6098 -0.7926 0.7926 0.6098 730.7451 3057.0029)" class="st3" width="757.7" height="1136.5"/>
	<g class="st4">
		<path class="st5" d="M383.4,690c8.5,8.5,18.2,16,28.9,22l172.5-227c-12.7-12.1-27-22-43.8-29.2c-17.6-7.7-36.1-11.6-55.9-11.6
			s-38.5,3.9-55.9,11.6c-17.6,7.7-32.7,17.9-45.7,31.1c-12.9,13.2-23.4,28.1-31.1,45.4c-7.4,17.3-11.3,36.1-11.3,55.6
			c0,19.8,3.9,38.5,11.3,55.9C360.3,661.6,370.4,676.8,383.4,690z"/>
		<polygon class="st5" points="603,515.5 626.6,515.5 626.6,715.8 738.9,715.8 738.9,445.7 656.1,445.7 		"/>
	</g>
</g>
</svg>
