<?xml version="1.0" encoding="utf-8"?>
<!-- Generator: Adobe Illustrator 23.0.1, SVG Export Plug-In . SVG Version: 6.00 Build 0)  -->
<svg version="1.1" id="a706cf1c-1654-439b-8fcf-310eb7aa0e00"
	 xmlns="http://www.w3.org/2000/svg" xmlns:xlink="http://www.w3.org/1999/xlink" x="0px" y="0px" viewBox="0 0 1120.6 777.9"
	 style="enable-background:new 0 0 1120.6 777.9;" xml:space="preserve">
<style type="text/css">
	.st0{fill:#F2F2F2;}
	.st1{fill:#FF6584;}
	.st2{fill:#3F3D56;}
	.st3{fill:#0057FA;}
	.st4{fill:#2F2E41;}
	.st5{fill:#FFFFFF;}
	.st6{fill:none;stroke:#3F3D56;stroke-width:2;stroke-miterlimit:10;}
</style>
<g>
	<path class="st0" d="M445,533.4c-30.6,113.6-95.4,213-213,213S19,651,19,533.4s124-136.1,213-213C412.8,164.2,540,180.6,445,533.4z
		"/>
	<circle class="st1" cx="507.4" cy="184.8" r="68"/>
	<rect x="594.4" y="89.8" class="st1" width="36" height="36"/>
	<ellipse class="st2" cx="234.6" cy="746.8" rx="170" ry="23.1"/>
	<rect x="282.4" y="208.8" class="st3" width="230" height="117"/>
	<circle class="st4" cx="225.4" cy="633.8" r="79"/>
	<rect x="189.4" y="695.8" class="st4" width="24" height="43"/>
	<rect x="237.4" y="695.8" class="st4" width="24" height="43"/>
	<ellipse class="st4" cx="209.4" cy="739.3" rx="20" ry="7.5"/>
	<ellipse class="st4" cx="257.4" cy="738.3" rx="20" ry="7.5"/>
	<circle class="st5" cx="227.4" cy="613.8" r="27"/>
	<circle class="st2" cx="227.4" cy="613.8" r="9"/>
	<path class="st3" d="M148.8,560.3c-6.4-28.6,14-57.4,45.5-64.5s62.3,10.4,68.6,39c6.4,28.6-14.5,39.1-46.1,46.1
		S155.1,588.9,148.8,560.3z"/>
	<circle class="st4" cx="198.4" cy="406.8" r="79"/>
	<rect x="162.4" y="468.8" class="st4" width="24" height="43"/>
	<rect x="210.4" y="468.8" class="st4" width="24" height="43"/>
	<ellipse class="st4" cx="182.4" cy="512.3" rx="20" ry="7.5"/>
	<ellipse class="st4" cx="230.4" cy="511.3" rx="20" ry="7.5"/>
	<circle class="st5" cx="200.4" cy="386.8" r="27"/>
	<circle class="st2" cx="200.4" cy="386.8" r="9"/>
	<path class="st3" d="M121.8,333.3c-6.4-28.6,14-57.4,45.5-64.5s62.3,10.4,68.6,39s-14.5,39.1-46.1,46.1S128.1,361.9,121.8,333.3z"
		/>
	
		<ellipse transform="matrix(0.357 -0.9341 0.9341 0.357 -149.7375 476.7295)" class="st4" cx="271.4" cy="347.1" rx="39.5" ry="12.4"/>
	
		<ellipse transform="matrix(0.4285 -0.9035 0.9035 0.4285 -271.8934 310.3855)" class="st4" cx="109.4" cy="370.1" rx="12.4" ry="39.5"/>
	<path class="st5" d="M159.6,435.3c0,7.7,19.9,23,42,23s42.8-21.8,42.8-29.5s-20.7,1.5-42.8,1.5S159.6,427.6,159.6,435.3z"/>
	<rect x="304.4" y="191.8" class="st6" width="230" height="117"/>
	<rect x="606.4" y="80.8" class="st6" width="36" height="36"/>
</g>
<path class="st0" d="M1103.9,523c0,81.8-48.6,110.4-108.7,110.4S886.6,604.9,886.6,523s108.7-185.9,108.7-185.9
	S1103.9,441.2,1103.9,523z"/>
<polygon class="st2" points="991.3,620.9 992.4,552.4 1038.7,467.7 992.6,541.7 993.1,510.9 1025,449.6 993.2,502.8 993.2,502.8 
	994.1,447.4 1028.3,398.6 994.3,438.7 994.8,337.1 991.3,471.6 991.6,466 956.8,412.8 991,476.7 987.8,538.5 987.7,536.9 
	947.6,480.9 987.6,542.7 987.2,550.4 987.1,550.5 987.1,551.2 978.9,708.1 989.9,708.1 991.2,627 1031,565.4 "/>
<ellipse class="st2" cx="983.6" cy="708.1" rx="37.8" ry="11.2"/>
<ellipse class="st2" cx="814.1" cy="745.8" rx="170" ry="23.1"/>
<circle class="st4" cx="816.1" cy="627.3" r="79"/>
<rect x="828.1" y="689.3" class="st4" width="24" height="43"/>
<rect x="780.1" y="689.3" class="st4" width="24" height="43"/>
<ellipse transform="matrix(0.866 -0.5 0.5 0.866 -262.924 492.255)" class="st4" cx="787.1" cy="736.8" rx="20" ry="7.5"/>
<ellipse transform="matrix(0.866 -0.5 0.5 0.866 -256.6272 515.755)" class="st4" cx="834.1" cy="736.8" rx="20" ry="7.5"/>
<circle class="st5" cx="814.1" cy="607.3" r="27"/>
<circle class="st2" cx="804.9" cy="595.8" r="9"/>
<path class="st3" d="M892.7,553.8c6.4-28.6-14-57.4-45.5-64.5s-62.3,10.4-68.6,39c-6.4,28.6,14.5,39.1,46.1,46.1
	C856.1,581.5,886.4,582.4,892.7,553.8z"/>
<ellipse transform="matrix(0.3935 -0.9193 0.9193 0.3935 -98.6863 1050.6042)" class="st4" cx="746.9" cy="600.1" rx="12.4" ry="39.5"/>
<ellipse transform="matrix(0.3935 -0.9193 0.9193 0.3935 -57.6459 1218.8112)" class="st4" cx="894.9" cy="653.1" rx="12.4" ry="39.5"/>
<rect x="682.9" y="552.8" class="st1" width="36" height="36"/>
<rect x="644.9" y="488.8" class="st6" width="36" height="36"/>
<path class="st5" d="M831.9,661.8c0,9.9-8.1,18-18,18s-18-8.1-18-18c0-9.9,8.1-12,18-12S831.9,651.8,831.9,661.8z"/>
</svg>
