<?xml version="1.0" encoding="utf-8"?>
<!-- Generator: Adobe Illustrator 23.0.1, SVG Export Plug-In . SVG Version: 6.00 Build 0)  -->
<svg version="1.1" id="a706cf1c-1654-439b-8fcf-310eb7aa0e00"
	 xmlns="http://www.w3.org/2000/svg" xmlns:xlink="http://www.w3.org/1999/xlink" x="0px" y="0px" viewBox="0 0 1120.6 777.9"
	 style="enable-background:new 0 0 1120.6 777.9;" xml:space="preserve">
<style type="text/css">
	.st0{fill:none;stroke:#3F3D56;stroke-width:2;stroke-miterlimit:10;}
	.st1{fill:#2F2E41;}
	.st2{fill:#F2F2F2;}
	.st3{fill:#3F3D56;}
	.st4{fill:#FFFFFF;}
	.st5{fill:#0057FA;}
	.st6{fill:#FF6584;}
</style>
<g>
	<line class="st0" x1="392.3" y1="195.7" x2="536.3" y2="195.7"/>
	
		<ellipse transform="matrix(0.357 -0.9341 0.9341 0.357 -192.6418 420.5525)" class="st1" cx="209.2" cy="350.2" rx="39.5" ry="12.4"/>
	<path class="st2" d="M1113.7,449.7c15.7,116.6-5.7,233.3-114.2,278.8c-108.5,45.4-233.3-5.7-278.8-114.2s61.8-173.4,114.2-278.8
		C941.3,121.7,1065,87.7,1113.7,449.7z"/>
	<ellipse class="st3" cx="918.3" cy="734.9" rx="170" ry="23.1"/>
	
		<rect x="809.5" y="669.8" transform="matrix(0.9639 -0.2664 0.2664 0.9639 -151.6271 246.0674)" class="st1" width="43" height="24"/>
	<ellipse transform="matrix(0.9639 -0.2664 0.2664 0.9639 -153.1428 239.1118)" class="st1" cx="804.7" cy="684" rx="7.5" ry="20"/>
	
		<ellipse transform="matrix(0.1343 -0.9909 0.9909 0.1343 211.9394 1432.163)" class="st1" cx="925.7" cy="594.8" rx="39.5" ry="12.4"/>
	<circle class="st1" cx="917.9" cy="668.7" r="79"/>
	
		<rect x="809.5" y="655.8" transform="matrix(0.9639 -0.2664 0.2664 0.9639 -147.897 245.5614)" class="st1" width="43" height="24"/>
	<ellipse transform="matrix(0.9639 -0.2664 0.2664 0.9639 -149.4127 238.6057)" class="st1" cx="804.7" cy="670" rx="7.5" ry="20"/>
	<circle class="st4" cx="938.7" cy="623.5" r="27"/>
	<circle class="st3" cx="947.3" cy="611.5" r="9"/>
	<path class="st5" d="M1009.2,723c29.2-1.5,51.6-28.8,50-61.1c-1.6-32.3-26.6-57.2-55.9-55.8s-33.8,24.4-32.2,56.7
		S979.9,724.5,1009.2,723z"/>
	<path class="st4" d="M885.6,635.3c-9.9,0.8-18.6-6.6-19.4-16.5c-0.8-9.9,6.6-18.6,16.5-19.4s12.6,7.1,13.4,17
		C896.9,626.3,895.5,634.5,885.6,635.3z"/>
	<polyline class="st0" points="51.8,301.5 494.3,301.5 562.9,334.9 672.2,388.1 743.7,254.3 945.9,254.3 	"/>
	<circle class="st5" cx="225.2" cy="315.5" r="13.7"/>
	<circle class="st5" cx="352.9" cy="301.5" r="13.7"/>
	<circle class="st5" cx="562.7" cy="334.9" r="13.7"/>
	<circle class="st5" cx="857.7" cy="254.3" r="13.7"/>
	<circle class="st5" cx="714.8" cy="307.5" r="13.7"/>
	<circle class="st0" cx="429.9" cy="521.9" r="14.8"/>
	<ellipse class="st3" cx="172.3" cy="749.9" rx="170" ry="23.1"/>
	<circle class="st1" cx="163.1" cy="636.9" r="79"/>
	<rect x="127.1" y="698.9" class="st1" width="24" height="43"/>
	<rect x="175.1" y="698.9" class="st1" width="24" height="43"/>
	<ellipse class="st1" cx="147.1" cy="742.4" rx="20" ry="7.5"/>
	<ellipse class="st1" cx="195.1" cy="741.4" rx="20" ry="7.5"/>
	<circle class="st4" cx="165.1" cy="616.9" r="27"/>
	<circle class="st3" cx="165.1" cy="616.9" r="9"/>
	<path class="st5" d="M86.5,563.4c-6.4-28.6,14-57.4,45.5-64.5s62.3,10.4,68.6,39c6.4,28.6-14.5,39.1-46.1,46.1
		C123.1,591.1,92.9,592,86.5,563.4z"/>
	<circle class="st1" cx="136.1" cy="409.9" r="79"/>
	<rect x="100.1" y="471.9" class="st1" width="24" height="43"/>
	<rect x="148.1" y="471.9" class="st1" width="24" height="43"/>
	<ellipse class="st1" cx="120.1" cy="515.4" rx="20" ry="7.5"/>
	<ellipse class="st1" cx="168.1" cy="514.4" rx="20" ry="7.5"/>
	<circle class="st4" cx="138.1" cy="389.9" r="27"/>
	<circle class="st3" cx="138.1" cy="389.9" r="9"/>
	<path class="st5" d="M59.5,336.4c-6.4-28.6,14-57.4,45.5-64.5s62.3,10.4,68.6,39S159.2,350,127.6,357S65.9,365,59.5,336.4z"/>
	
		<ellipse transform="matrix(0.4285 -0.9035 0.9035 0.4285 -310.2522 255.8915)" class="st1" cx="47.2" cy="373.2" rx="12.4" ry="39.5"/>
	<path class="st4" d="M97.3,438.4c0,7.7,19.9,23,42,23s42.8-21.8,42.8-29.5s-20.7,1.5-42.8,1.5S97.3,430.6,97.3,438.4z"/>
	<rect x="837.8" y="505.1" class="st5" width="126.1" height="64.2"/>
	<rect x="827.9" y="515.6" class="st0" width="126.1" height="64.2"/>
	<rect x="228.9" y="139.4" class="st6" width="36" height="36"/>
	<rect x="219.9" y="127.4" class="st0" width="36" height="36"/>
	<path class="st4" d="M930.1,161c1.8,9.8-4.7,19.1-14.5,20.9c-9.8,1.8-19.1-4.7-20.9-14.5s5.8-13.2,15.6-15S928.3,151.2,930.1,161z"
		/>
	<ellipse transform="matrix(0.1343 -0.9909 0.9909 0.1343 167.669 1419.03)" class="st1" cx="896" cy="613.6" rx="39.5" ry="12.4"/>
	<circle class="st5" cx="71.2" cy="726.5" r="13.7"/>
	<rect x="258.9" y="710.4" class="st6" width="36" height="36"/>
	<circle class="st5" cx="259.2" cy="734.5" r="13.7"/>
	<circle class="st5" cx="464.3" cy="195.5" r="13.7"/>
	<circle class="st6" cx="730.1" cy="619.7" r="6.5"/>
	<line class="st0" x1="762.1" y1="728.2" x2="762.1" y2="653.7"/>
	<circle class="st3" cx="762.1" cy="653.7" r="10.5"/>
	<path class="st3" d="M762.1,699.6c0,0-1.5-32.3-32.3-28.6"/>
</g>
</svg>
